<?xml version="1.0" encoding="UTF-8" standalone="no"?>
<!-- Created with Inkscape (http://www.inkscape.org/) -->

<svg
   width="600"
   height="600"
   viewBox="0 0 158.75 158.75"
   version="1.1"
   id="svg1"
   inkscape:version="1.4 (e7c3feb100, 2024-10-09)"
   sodipodi:docname="logo.svg"
   xmlns:inkscape="http://www.inkscape.org/namespaces/inkscape"
   xmlns:sodipodi="http://sodipodi.sourceforge.net/DTD/sodipodi-0.dtd"
   xmlns="http://www.w3.org/2000/svg"
   xmlns:svg="http://www.w3.org/2000/svg">
  <sodipodi:namedview
     id="namedview1"
     pagecolor="#505050"
     bordercolor="#ffffff"
     borderopacity="1"
     inkscape:showpageshadow="0"
     inkscape:pageopacity="0"
     inkscape:pagecheckerboard="1"
     inkscape:deskcolor="#505050"
     inkscape:document-units="mm"
     inkscape:zoom="0.27411499"
     inkscape:cx="1621.5822"
     inkscape:cy="131.33174"
     inkscape:window-width="1920"
     inkscape:window-height="1063"
     inkscape:window-x="0"
     inkscape:window-y="17"
     inkscape:window-maximized="1"
     inkscape:current-layer="layer1"
     showgrid="false"
     showguides="true" />
  <defs
     id="defs1" />
  <g
     inkscape:label="Layer 1"
     inkscape:groupmode="layer"
     id="layer1">
    <circle
       style="fill:#060f0f;fill-opacity:1;stroke:none;stroke-width:1.00459;stroke-linecap:round;stroke-linejoin:round;stroke-opacity:1;paint-order:stroke markers fill"
       id="path4"
       cx="79.374374"
       cy="79.434479"
       r="79.313988"
       inkscape:export-filename="logo.png"
       inkscape:export-xdpi="64.246178"
       inkscape:export-ydpi="64.246178" />
    <path
       d="m 286.20989,-294.60013 c -41.01491,0 -74.47866,33.46376 -74.47866,74.47866 0,14.64129 4.28195,28.30812 11.63185,39.84615 l 14.55001,-14.55002 c -3.94362,-7.55044 -6.18205,-16.14756 -6.18205,-25.29613 0,-30.2061 24.27275,-54.47833 54.47885,-54.47833 9.14816,0 17.7449,2.23831 25.2951,6.18154 l 14.55053,-14.55054 c -11.53782,-7.34965 -25.20459,-11.63133 -39.84563,-11.63133 z m 62.84629,34.63148 -14.55001,14.55053 c 3.94369,7.55054 6.18205,16.14791 6.18205,25.29665 0,30.2061 -24.27224,54.47833 -54.47833,54.47833 -9.14858,0 -17.74563,-2.23849 -25.29613,-6.18205 l -14.55002,14.55053 c 11.53803,7.3499 25.20485,11.63185 39.84615,11.63185 41.0149,0 74.47814,-33.46376 74.47814,-74.47866 0,-14.64165 -4.28171,-28.30897 -11.63185,-39.84718 z"
       style="fill:#83d0d0;stroke-linecap:round;stroke-linejoin:round;paint-order:stroke markers fill"
       id="path8" />
    <path
       style="fill:none;stroke:#83d0d0;stroke-width:20;stroke-linecap:round;stroke-linejoin:round;stroke-dasharray:none;paint-order:stroke markers fill"
       d="M 351.92458,-285.83813 220.49392,-154.40582"
       id="path2"
       sodipodi:nodetypes="cc" />
    <circle
       style="fill:none;stroke:#83d0d0;stroke-width:20;stroke-linecap:round;stroke-linejoin:round;stroke-dasharray:none;paint-order:stroke markers fill"
       id="circle1"
       cx="-436.27142"
       cy="-525.25415"
       r="64.478516" />
    <path
       style="fill:none;stroke:#83d0d0;stroke-width:20;stroke-linecap:round;stroke-linejoin:round;stroke-dasharray:none;paint-order:stroke markers fill"
       d="m -370.55611,-590.97031 -131.43066,131.4323"
       id="path3"
       sodipodi:nodetypes="cc" />
    <circle
       style="fill:none;stroke:#83d0d0;stroke-width:20;stroke-linecap:round;stroke-linejoin:round;stroke-dasharray:none;paint-order:stroke markers fill"
       id="circle11"
       cx="-175.01062"
       cy="-523.60022"
       r="64.478516" />
    <path
       style="fill:none;stroke:#000000;stroke-width:41.8965;stroke-linecap:round;stroke-linejoin:round;stroke-dasharray:none;stroke-opacity:1;paint-order:stroke markers fill"
       d="M -37.348421,-661.26415 -312.67287,-385.93623"
       id="path12"
       sodipodi:nodetypes="cc" />
    <path
       style="fill:none;stroke:#83d0d0;stroke-width:20;stroke-linecap:round;stroke-linejoin:round;stroke-dasharray:none;paint-order:stroke markers fill"
       d="m -109.29532,-589.31634 -131.43065,131.4323"
       id="path11"
       sodipodi:nodetypes="cc" />
    <rect
       style="fill:#060f0f;fill-opacity:1;stroke:none;stroke-width:0.953263;stroke-linecap:round;stroke-linejoin:round;stroke-dasharray:none;stroke-opacity:1;paint-order:stroke markers fill"
       id="rect1"
       width="539.56506"
       height="98.961845"
       x="269.10849"
       y="26.975895"
       inkscape:export-filename="banner.png"
       inkscape:export-xdpi="64.246178"
       inkscape:export-ydpi="64.246178" />
    <path
       id="path5"
       style="fill:#83d0d0;stroke-width:0.392502;stroke-linecap:round;stroke-linejoin:round;paint-order:stroke markers fill"
       d="m 347.01514,46.737626 a 3.9250127,3.9250127 0 0 0 -2.77545,1.150681 l -51.58691,51.586475 a 3.9250127,3.9250127 0 0 0 0,5.550908 3.9250127,3.9250127 0 0 0 5.55091,0 L 349.7906,53.438781 a 3.9250127,3.9250127 0 0 0 0,-5.550474 3.9250127,3.9250127 0 0 0 -2.77546,-1.150681 z m -25.79345,0.486338 c -16.0984,0 -29.23282,13.134414 -29.23282,29.232818 0,5.746727 1.68071,11.111128 4.56556,15.639819 l 5.71054,-5.710983 c -1.54788,-2.963556 -2.42645,-6.338008 -2.42645,-9.928836 0,-11.855936 9.52724,-21.382731 21.38317,-21.382731 3.59066,0 6.96494,0.878727 9.9284,2.426447 l 5.71099,-5.710984 c -4.52862,-2.884751 -9.89276,-4.56555 -15.63939,-4.56555 z m 24.66726,13.592998 -5.71097,5.710983 c 1.54791,2.963596 2.42644,6.337944 2.42644,9.928837 0,11.855933 -9.52679,21.383162 -21.38273,21.383162 -3.59083,0 -6.96525,-0.878588 -9.92883,-2.426441 l -5.71099,5.710977 c 4.5287,2.88484 9.89309,4.56556 15.63982,4.56556 16.0984,0 29.23282,-13.134858 29.23282,-29.233258 0,-5.746866 -1.68062,-11.111058 -4.56556,-15.63982 z" />
    <text
       xml:space="preserve"
       style="font-weight:bold;font-size:69.9198px;line-height:1;font-family:'DejaVu Sans';-inkscape-font-specification:'DejaVu Sans Bold';text-align:center;letter-spacing:-0.0786599px;writing-mode:lr-tb;direction:ltr;text-anchor:middle;fill:#83d0d0;fill-opacity:1;stroke:none;stroke-width:4.95496;stroke-linecap:round;stroke-linejoin:round;stroke-dasharray:none;paint-order:stroke markers fill"
       x="579.35614"
       y="100.26951"
       id="text7"><tspan
         sodipodi:role="line"
         id="tspan7"
         style="font-style:normal;font-variant:normal;font-weight:normal;font-stretch:normal;line-height:1;font-family:Consolas;-inkscape-font-specification:Consolas;fill:#83d0d0;fill-opacity:1;stroke:none;stroke-width:4.95496;stroke-dasharray:none;stroke-opacity:1"
         x="579.31683"
         y="100.26951"><tspan
   style="font-style:normal;font-variant:normal;font-weight:normal;font-stretch:normal;font-family:Consolas;-inkscape-font-specification:Consolas;fill:#ffffff;fill-opacity:1;stroke-width:4.95496"
   id="tspan6">null</tspan>browser</tspan></text>
    <path
       id="path1"
       style="fill:#83d0d0;stroke-width:0.712184;stroke-linecap:round;stroke-linejoin:round;paint-order:stroke markers fill"
       d="m 126.17607,25.510441 a 7.1218246,7.1218246 0 0 0 -5.03598,2.087879 l -93.603002,93.6022 a 7.1218246,7.1218246 0 0 0 0,10.07197 7.1218246,7.1218246 0 0 0 10.071969,0 L 131.21206,37.669499 a 7.1218246,7.1218246 0 0 0 0,-10.071179 7.1218246,7.1218246 0 0 0 -5.03599,-2.087879 z M 79.374574,26.39289 c -29.210084,0 -53.042125,23.832022 -53.042125,53.04212 0,10.427275 3.049599,20.160823 8.284073,28.37801 L 44.978143,97.450601 c -2.80858,-5.377285 -4.40272,-11.500134 -4.40272,-18.015591 0,-21.51226 17.286906,-38.79836 38.799151,-38.79836 6.51516,0 12.637685,1.594424 18.014804,4.402719 L 107.7518,34.676951 C 99.534752,29.442651 89.801676,26.39289 79.374574,26.39289 Z m 44.758046,24.664109 -10.3624,10.362418 c 2.80864,5.377361 4.40271,11.50002 4.40271,18.015593 0,21.51225 -17.2861,38.79915 -38.798356,38.79915 -6.51545,0 -12.638252,-1.59418 -18.015587,-4.40271 l -10.362422,10.36241 c 8.217197,5.23446 17.950738,8.28406 28.378009,8.28406 29.210096,0 53.042126,-23.83281 53.042126,-53.04291 0,-10.427525 -3.04942,-20.1607 -8.28408,-28.378011 z" />
  </g>
</svg>
